<svg xmlns="http://www.w3.org/2000/svg" xmlns:svg="http://www.w3.org/2000/svg">
  <g id="svg_1" class="sq_red">
   <path id="svg_2" d="m307.008556,630.678221c-12.8796,-2.9305 -5.9642,3.5578 -157.29569,-147.58c-134.58829,-134.41605 -141.97656,-141.97785 -145.35467,-148.76831c-7.03282,-14.13693 -5.45865,-31.30505 4.03215,-43.97518c6.78737,-9.0611 280.29663,-281.66242 285.61821,-284.67007c12.5005,-7.06508 27.8281,-7.57833 40.3459,-1.351c6.7902,3.37798 14.3578,10.77152 148.7773,145.35468c154.7557,154.94413 145.4562,144.91424 147.9395,159.55764c1.3956,8.22945 0.2582,15.9587 -3.6805,25.01043c-2.5513,5.86314 -10.9081,14.43817 -142.796,146.52401c-77.0474,77.1631 -142.0638,141.6176 -144.4809,143.2323c-9.6627,6.4551 -22.5903,9.0579 -33.1053,6.6655z"/>
  </g>
</svg>