<svg xmlns="http://www.w3.org/2000/svg" version="1.1" viewBox="0 0 631.64245 631.55394" id="sq">
        <g class="sq" transform="translate(-54.207294,-189.37552)">
        <path d="m 361.21585,820.05374 c -12.8796,-2.9305 -5.9642,3.5578 -157.29569,-147.58 C 69.331873,538.05769 61.943596,530.49589 58.565486,523.70543 c -7.03282,-14.13693 -5.45865,-31.30505 4.03215,-43.97518 6.787377,-9.0611 280.296634,-281.66242 285.618214,-284.67007 12.5005,-7.06508 27.8281,-7.57833 40.3459,-1.351 6.7902,3.37798 14.3578,10.77152 148.7773,145.35468 154.7557,154.94413 145.4562,144.91424 147.9395,159.55764 1.3956,8.22945 0.2582,15.9587 -3.6805,25.01043 -2.5513,5.86314 -10.9081,14.43817 -142.796,146.52401 -77.0474,77.1631 -142.0638,141.6176 -144.4809,143.2323 -9.6627,6.4551 -22.5903,9.0579 -33.1053,6.6655 z"></path>
        </g>
    </svg>

