<svg xmlns="http://www.w3.org/2000/svg" xmlns:xlink="http://www.w3.org/1999/xlink" style="width: 0; height: 0; visibility: hidden; position: absolute;" aria-hidden="true">
<symbol  viewBox='0 0 430.1 430.1' id='facebook-letter-logo'>
    <path d="M158 83.3v59.2h-43.3V215h43.4v215.2h89.1V215H307s5.6-34.7 8.3-72.6h-67.8V92.7c0-7.4 9.8-17.3 19.4-17.3h48.5V0h-66c-93.5 0-91.3 72.5-91.3 83.3z" fill="#ffffff"></path>
  </symbol><symbol  viewBox='0 0 438.5 438.5' id='linkedin-letters'>
    <path d="M5.4 145.9h94.2v282.9H5.4zm403.4 25.8c-19.7-21.6-46-32.4-78.5-32.4-12 0-22.9 1.5-32.7 4.5-9.8 3-18 7-24.8 12.4a121.8 121.8 0 0 0-16.1 14.8c-3.8 4.4-7.5 9.4-11.2 15.1V146h-93.9l.3 13.7c.2 9.1.3 37.3.3 84.5s-.2 108.8-.6 184.7h94V271a69 69 0 0 1 3-23 60 60 0 0 1 18.2-24.5 46 46 0 0 1 30.1-9.8c16.4 0 28.4 5.6 36.1 17 7.8 11.3 11.6 27 11.6 47v151.2h94V266.7c0-41.7-10-73.4-29.8-95zM53.1 9.7a53.7 53.7 0 0 0-38.4 13.9A46 46 0 0 0 0 58.6C0 72.3 4.8 84 14.3 93.3c9.5 9.3 22 14 37.7 14h.5c16 0 29-4.7 38.7-14 9.8-9.4 14.6-21 14.4-34.9a48 48 0 0 0-14.5-35A52.2 52.2 0 0 0 53 9.8z" fill="#ffffff"></path>
  </symbol><symbol  viewBox='0 0 612 612' id='twitter-logo-silhouette'>
    <path d="M612 116.3a250.7 250.7 0 0 1-72 19.7 126 126 0 0 0 55-69.4 253.1 253.1 0 0 1-79.8 30.5 125.6 125.6 0 0 0-214 114.5A356.4 356.4 0 0 1 42.7 80.4 125.5 125.5 0 0 0 81.5 248c-20.6-.7-40-6.4-56.9-15.8v1.6c0 60.8 43.3 111.5 100.7 123a127.2 127.2 0 0 1-56.7 2.1c16 50 62.3 86.2 117.3 87.2A251.9 251.9 0 0 1 0 498.1a354.9 354.9 0 0 0 192.4 56.5c231 0 357.2-191.3 357.2-357.2l-.4-16.3c24.7-17.6 46-39.7 62.8-64.8z" fill="#ffffff"></path>
  </symbol><symbol  viewBox='0 0 430.1 430.1' id='vimeo-logo'>
    <path d="M367.2 28.8c-59.8-2-100.2 31.5-121.4 100.6 11-4.5 21.5-6.7 31.9-6.7 21.8 0 31.4 12.2 28.8 36.7-1.2 14.9-10.9 36.5-28.8 64.9-18 28.4-31.6 42.6-40.5 42.6-11.6 0-22.2-22-31.9-65.8-3.2-13-9-45.8-17.3-98.8-7.8-49-28.3-72-61.7-68.7-14.1 1.3-35.3 14.2-63.6 38.7A5617 5617 0 0 1 0 128.5l20.2 26C39.5 141 50.8 134.4 54 134.4c14.8 0 28.6 23.2 41.4 69.6l34.8 127.8c17.2 46.5 38.5 69.7 63.5 69.7 40.5 0 90-38 148.5-114.2C398.7 214.3 428 157 430 115c2.6-56.1-18.3-84.9-62.7-86.1z" fill="#ffffff"></path>
  </symbol></svg>